# xmcd CD database file
#
# Track frame offsets:
#	150
#	12027
#	25472
#	39472
#	51217
#	62695
#	78475
#	89287
#	104682
#	118090
#	129665
#	141112
#	155427
#	176452
#	188470
#	201017
#	213335
#	230887
#	246790
#	259930
#
# Disc length: 3651 seconds
#
# Revision: 4
# Processed by: cddbd v1.5.2PL0 Copyright (c) Steve Scherf et al.
# Submitted via: jetAudio 7
#
DISCID=180e4114
DTITLE=Chet Atkins - Chet Atkins Picks On The Hits and Superpickers
DYEAR=1972
DGENRE=Country
TTITLE0=The Masterpiece
TTITLE1=After Midnight
TTITLE2=Song Sung Blue
TTITLE3=An Old Fashioned Love Song
TTITLE4=Amazing Grace
TTITLE5=Sweet Caroline
TTITLE6=I'd Like To Teach The World To Sing
TTITLE7=Vincent
TTITLE8=Love Theme From ''The Godfather''
TTITLE9=Me And Julio Down By The Schoolyard
TTITLE10=Paramaribo
TTITLE11=Fiddlin' Around
TTITLE12=Mr. Bojangles
TTITLE13=Beef And Biscuits
TTITLE14=Sweet Dreams
TTITLE15=Just Another Rag
TTITLE16=Canadian Pacific
TTITLE17=City Of New Orleans
TTITLE18=The Bells Of Saint Mary's
TTITLE19=Are You From Dixie ('Cause I'm From Dixie Too)
EXTD=
EXTT0=
EXTT1=
EXTT2=
EXTT3=
EXTT4=
EXTT5=
EXTT6=
EXTT7=
EXTT8=
EXTT9=
EXTT10=
EXTT11=
EXTT12=
EXTT13=
EXTT14=
EXTT15=
EXTT16=
EXTT17=
EXTT18=
EXTT19=
PLAYORDER=
